#!OML:ASF E:\Mandelcareful walks\Project 1\Capture day 1\Session 1\Subject1.ASF
:FULLY-SPECIFIED
:DEGREES
630
root -19.4796 15.2789 1.83411 500.935 82.9332 480.735
lowerback 26.7043 -2.90403 -1.77998
upperback 7.05084 -3.83216 -3.70188
thorax -7.06233 -1.52458 -1.87487
lowerneck -31.0773 4.83072 0.00249981
upperneck 7.97094 9.56527 -15.3577
head 8.31371 3.09572 -3.75747
rclavicle 1.59028e-014 -2.22639e-014
rhumerus -22.4684 25.4688 -89.9954
rradius 55.183
rwrist -29.1757
rhand -10.5841 -32.3558
rfingers 7.12502
rthumb 15.4211 -61.7606
lclavicle 1.59028e-014 -2.22639e-014
lhumerus -26.0971 -19.0193 80.331
lradius 56.7581
lwrist 11.4214
lhand -21.7686 338.557
lfingers 7.12502
lthumb 4.63219 8.48684
rfemur -52.8025 -15.6541 9.24102
rtibia 57.9515
rfoot -19.6967 -7.58241
rtoes -8.61647
lfemur -45.1418 15.8925 -12.6564
ltibia 51.4104
lfoot -12.9587 11.3997
ltoes -18.2213
631
root -19.4267 15.3002 1.9012 499.327 82.8026 479.311
lowerback 26.5089 -2.77802 -1.40616
upperback 6.94488 -3.57769 -3.51174
thorax -7.08872 -1.41675 -1.96275
lowerneck -30.6393 4.93411 0.336811
upperneck 8.24147 9.64164 -15.6401
head 8.38507 3.11139 -3.89673
rclavicle 1.98785e-015 1.47101e-014
rhumerus -21.7977 25.6028 -89.503
rradius 53.799
rwrist -27.8833
rhand -9.09743 -33.152
rfingers 7.12502
rthumb 16.8526 -62.4407
lclavicle 1.98785e-015 1.47101e-014
lhumerus -25.1133 -16.9761 81.027
lradius 55.4204
lwrist 9.60259
lhand -21.3946 339.095
lfingers 7.12502
lthumb 4.99337 9.01647
rfemur -52.3336 -15.315 9.11795
rtibia 57.9476
rfoot -20.0745 -7.72515
rtoes -8.03366
lfemur -45.3634 16.2617 -12.7769
ltibia 52.2375
lfoot -11.7714 11.6921
ltoes -16.8936
632
root -19.3709 15.3321 1.96055 498.785 82.8649 479.063
lowerback 26.4351 -2.70811 -0.895661
upperback 6.81168 -3.36171 -3.26841
thorax -7.2098 -1.32916 -2.0546
lowerneck -30.0992 5.18344 0.758393
upperneck 8.49029 9.88578 -15.9794
head 8.45638 3.20924 -4.04121
rclavicle 1.78906e-014 1.92821e-014
rhumerus -20.9902 25.9069 -89.0753
rradius 52.3159
rwrist -26.5627
rhand -7.68235 -33.9493
rfingers 7.12502
rthumb 18.2145 -63.1165
lclavicle 1.78906e-014 1.92821e-014
lhumerus -24.7002 -15.6101 81.6639
lradius 55.1194
lwrist 8.10662
lhand -21.1018 340.695
lfingers 7.12502
lthumb 5.27609 10.6095
rfemur -51.6384 -15.0177 9.26455
rtibia 57.7261
rfoot -20.4337 -7.75252
rtoes -7.53879
lfemur -45.5488 16.5171 -12.5333
ltibia 53.1547
lfoot -10.2626 11.9673
ltoes -15.838
633
root -19.3597 15.354 2.03163 503.538 82.2965 483.584
lowerback 26.1583 -2.92013 -0.176311
upperback 6.60746 -3.44869 -2.91903
thorax -7.32401 -1.39219 -2.05629
lowerneck -30.3034 5.34943 0.813752
upperneck 9.0861 10.2095 -16.0921
head 8.73621 3.29917 -4.03819
rclavicle 1.5704e-014 1.74931e-014
rhumerus -19.9758 25.8944 -88.5639
rradius 50.64
rwrist -24.8448
rhand -6.6016 -34.499
rfingers 7.12502
rthumb 19.2539 -63.5659
lclavicle 1.5704e-014 1.74931e-014
lhumerus -24.0372 -15.6019 82.2898
lradius 55.1187
lwrist 6.64502
lhand -21.1332 343.53
lfingers 7.12502
lthumb 5.24576 13.4451
rfemur -51.5366 -15.4334 9.5381
rtibia 57.5353
rfoot -20.5938 -8.08513
rtoes -7.16024
lfemur -46.9443 16.1843 -12.52
ltibia 54.1066
lfoot -8.11284 12.1973
ltoes -14.9692
634
root -19.2972 15.3952 2.07719 502.2 82.4382 482.575
lowerback 26.1017 -2.75431 0.247551
upperback 6.55461 -3.11838 -2.65958
thorax -7.34927 -1.2462 -2.11852
lowerneck -30.3179 5.51445 0.983577
upperneck 9.65706 10.5275 -16.4184
head 9.00462 3.37914 -4.12849
rclavicle -2.66371e-014 -4.2043e-014
rhumerus -19.1483 25.7343 -88.1392
rradius 48.8993
rwrist -22.7338
rhand -6.38488 -34.5475
rfingers 7.12502
rthumb 19.4623 -63.5935
lclavicle -2.66371e-014 -4.2043e-014
lhumerus -23.3134 -16.8052 82.994
lradius 54.8526
lwrist 5.54168
lhand -21.7367 345.783
lfingers 7.12502
lthumb 4.66298 15.7113
rfemur -50.6973 -15.0643 9.59647
rtibia 57.1459
rfoot -20.814 -8.09065
rtoes -6.65724
lfemur -47.1043 16.637 -12.4228
ltibia 54.8772
lfoot -6.50245 12.39
ltoes -13.9221
635
root -19.2528 15.4285 2.12226 501.82 82.2047 482.222
lowerback 25.7952 -2.66604 0.427198
upperback 6.41072 -2.95863 -2.36687
thorax -7.34202 -1.18314 -1.95366
lowerneck -30.3725 5.76305 1.12283
upperneck 10.424 10.9947 -16.687
head 9.35983 3.51472 -4.16942
rclavicle -4.54968e-014 -3.96078e-014
rhumerus -18.343 25.7856 -87.6429
rradius 47.3858
rwrist -20.8166
rhand -6.63929 -35.1638
rfingers 7.12502
rthumb 19.2177 -64.2343
lclavicle -4.54968e-014 -3.96078e-014
lhumerus -22.9192 -18.9777 83.7055
lradius 55.061
lwrist 5.41159
lhand -22.8881 347.239
lfingers 7.12502
lthumb 3.55119 17.1888
rfemur -50.2363 -15.0835 9.51823
rtibia 56.7819
rfoot -20.9863 -8.14324
rtoes -6.22762
lfemur -47.687 16.7909 -12.6648
ltibia 55.3771
lfoot -5.17771 12.4161
ltoes -12.5544
636
root -19.2267 15.4545 2.16705 503.473 81.7458 483.681
lowerback 25.9199 -2.67938 0.822749
upperback 5.89369 -2.91522 -2.20145
thorax -7.98944 -1.19077 -2.00164
lowerneck -31.0891 5.8728 1.01716
upperneck 12.2482 11.3687 -16.1502
head 10.1074 3.56466 -3.91734
rclavicle -1.39149e-014 -1.14301e-014
rhumerus -18.2971 25.8254 -87.546
rradius 46.19
rwrist -19.3851
rhand -7.36001 -36.0838
rfingers 7.12502
rthumb 18.5245 -65.2218
lclavicle -1.39149e-014 -1.14301e-014
lhumerus -23.5735 -21.9726 84.2373
lradius 56.2104
lwrist 5.59422
lhand -24.1989 348.676
lfingers 7.12502
lthumb 2.2853 18.643
rfemur -50.0348 -15.4202 9.53163
rtibia 56.4198
rfoot -21.0781 -8.33032
rtoes -6.11919
lfemur -48.5385 16.6667 -12.999
ltibia 55.4431
lfoot -4.3172 12.3603
ltoes -11.7285
637
root -19.1734 15.492 2.19329 503.266 81.7733 483.641
lowerback 25.0889 -2.46247 1.15353
upperback 6.26893 -2.51621 -1.98112
thorax -7.13917 -0.995816 -2.09539
lowerneck -31.7738 5.86753 0.772598
upperneck 13.3061 11.5755 -15.794
head 10.5784 3.57722 -3.72447
rclavicle 2.98177e-015 -3.33958e-014
rhumerus -16.9849 25.8718 -86.6032
rradius 44.9584
rwrist -18.0813
rhand -7.69657 -37.0721
rfingers 7.12502
rthumb 18.2008 -66.2405
lclavicle 2.98177e-015 -3.33958e-014
lhumerus -22.2618 -25.634 84.3001
lradius 56.3246
lwrist 6.72973
lhand -25.329 349.432
lfingers 7.12502
lthumb 1.19386 19.4082
rfemur -49.3747 -15.3744 9.62514
rtibia 56.002
rfoot -21.1949 -8.34549
rtoes -6.31326
lfemur -48.4824 16.8938 -13.0775
ltibia 54.9624
lfoot -4.65609 12.0651
ltoes -13.1439
638
root -19.1326 15.5249 2.21305 503.969 81.5474 484.246
lowerback 25.1248 -2.42493 1.48203
upperback 5.82271 -2.42017 -1.84939
thorax -7.65474 -0.97756 -2.16268
lowerneck -31.7787 6.15723 0.909758
upperneck 14.495 12.0341 -15.5418
head 11.0456 3.73099 -3.58242
rclavicle 9.74045e-015 2.22639e-014
rhumerus -16.7867 26.0285 -86.3155
rradius 43.6641
rwrist -16.176
rhand -7.83619 -37.4361
rfingers 7.12502
rthumb 18.0664 -66.6171
lclavicle 9.74045e-015 2.22639e-014
lhumerus -22.4089 -28.6886 84.5818
lradius 56.8344
lwrist 8.57014
lhand -25.1107 349.41
lfingers 7.12502
lthumb 1.40466 19.3847
rfemur -49.0154 -15.6589 9.66118
rtibia 55.5512
rfoot -21.1638 -8.37996
rtoes -6.40106
lfemur -48.7009 16.8956 -13.4227
ltibia 53.8904
lfoot -5.73785 11.3213
ltoes -15.2265
639
root -19.0934 15.5618 2.22324 504.503 81.385 484.619
lowerback 24.0883 -2.31278 1.7786
upperback 6.10453 -2.20253 -1.76374
thorax -6.81331 -0.869133 -2.32445
lowerneck -32.2587 6.33483 0.954705
upperneck 15.3396 12.3434 -15.2865
head 11.4499 3.81867 -3.44446
rclavicle 5.56597e-015 1.59028e-014
rhumerus -15.3557 25.825 -85.3921
rradius 42.2756
rwrist -13.8454
rhand -8.40267 -36.8157
rfingers 7.12502
rthumb 17.5214 -66.0462
lclavicle 5.56597e-015 1.59028e-014
lhumerus -21.3482 -31.3247 84.1517
lradius 57.4973
lwrist 10.7642
lhand -23.2857 348.595
lfingers 7.12502
lthumb 3.16718 18.5513
rfemur -48.6854 -15.9414 9.7069
rtibia 54.9621
rfoot -21.0682 -8.32251
rtoes -5.93947
lfemur -48.7792 16.8646 -13.7632
ltibia 52.2248
lfoot -6.90275 10.433
ltoes -15.4765
640
root -19.0408 15.6111 2.22446 504.916 81.5486 485.113
lowerback 24.4164 -2.17475 2.07067
upperback 5.72039 -1.9653 -1.57558
thorax -7.39329 -0.780414 -2.34857
lowerneck -32.6854 6.60656 1.16922
upperneck 16.7014 12.8258 -15.1386
head 12.0898 3.94584 -3.34414
rclavicle -4.01545e-014 -4.37326e-015
rhumerus -15.0956 25.7147 -84.8652
rradius 40.9703
rwrist -11.2415
rhand -8.46307 -36.2099
rfingers 7.12502
rthumb 17.4632 -65.4455
lclavicle -4.01545e-014 -4.37326e-015
lhumerus -21.7718 -33.1773 84.3805
lradius 58.4235
lwrist 12.5497
lhand -20.4949 347.179
lfingers 7.12502
lthumb 5.86198 17.0782
rfemur -47.9785 -15.9078 9.89956
rtibia 54.2128
rfoot -21.0321 -8.19068
rtoes -5.47123
lfemur -48.2957 16.8671 -13.7077
ltibia 50.032
lfoot -7.91809 9.91404
ltoes -16.1348
641
root -18.9938 15.6554 2.22081 506.436 81.5755 486.486
lowerback 23.8434 -2.07362 2.36565
upperback 5.74845 -1.77022 -1.40116
thorax -7.06128 -0.692023 -2.39168
lowerneck -32.7728 6.9476 1.70173
upperneck 17.0582 13.2314 -15.4982
head 12.3575 4.08699 -3.48388
rclavicle 2.78299e-015 6.36111e-015
rhumerus -13.9022 25.5075 -84.0595
rradius 39.2618
rwrist -9.03452
rhand -8.26937 -35.602
rfingers 7.12502
rthumb 17.6496 -64.821
lclavicle 2.78299e-015 6.36111e-015
lhumerus -21.2895 -34.7432 84.0711
lradius 59.3986
lwrist 13.8952
lhand -17.8364 346.079
lfingers 7.12502
lthumb 8.4282 15.8908
rfemur -47.5021 -15.9435 10.0952
rtibia 53.4342
rfoot -20.9132 -8.22772
rtoes -5.35003
lfemur -48.0982 16.5301 -13.6783
ltibia 47.4645
lfoot -8.49028 9.98815
ltoes -18.0811
642
root -18.9419 15.6993 2.20373 507.178 81.6612 487.104
lowerback 23.7051 -1.9204 2.49872
upperback 5.50918 -1.55248 -1.21412
thorax -7.23857 -0.604258 -2.32688
lowerneck -33.0108 7.17151 1.71735
upperneck 17.9331 13.5983 -15.1768
head 12.7472 4.21578 -3.29886
rclavicle 1.51076e-014 -9.54166e-015
rhumerus -13.1384 25.353 -83.4437
rradius 37.518
rwrist -7.25893
rhand -8.68414 -34.4473
rfingers 7.12502
rthumb 17.2505 -63.7017
lclavicle 1.51076e-014 -9.54166e-015
lhumerus -21.3456 -36.0025 83.9964
lradius 60.656
lwrist 14.8841
lhand -15.366 345.609
lfingers 7.12502
lthumb 10.8117 15.3107
rfemur -46.9553 -15.9064 10.1891
rtibia 52.5754
rfoot -20.6965 -8.35494
rtoes -5.84184
lfemur -47.6597 16.083 -13.5995
ltibia 44.6264
lfoot -8.88485 10.3955
ltoes -19.4752
